<svg width="28" height="22" viewBox="0 0 28 22" fill="none" xmlns="http://www.w3.org/2000/svg">
<path fill-rule="evenodd" clip-rule="evenodd" d="M4.66666 0.333252C2.45752 0.333252 0.666656 2.12411 0.666656 4.33325V17.6666C0.666656 19.8757 2.45752 21.6666 4.66666 21.6666H23.3333C25.5425 21.6666 27.3333 19.8757 27.3333 17.6666V4.33325C27.3333 2.12411 25.5425 0.333252 23.3333 0.333252H4.66666ZM4.43401 3.02015C4.50956 3.00685 4.5873 2.99992 4.66666 2.99992H23.3333C23.4127 2.99992 23.4904 3.00685 23.566 3.02015L14 9.39748L4.43401 3.02015ZM3.33332 5.49129V17.6666C3.33332 18.403 3.93028 18.9999 4.66666 18.9999H23.3333C24.0697 18.9999 24.6667 18.403 24.6667 17.6666V5.49131L14.7396 12.1093C14.2917 12.4079 13.7083 12.4079 13.2604 12.1093L3.33332 5.49129Z" fill="#A0ABBB"/>
</svg>
