<svg width="20" height="28" viewBox="0 0 20 28" fill="none" xmlns="http://www.w3.org/2000/svg">
<path fill-rule="evenodd" clip-rule="evenodd" d="M10 3.33341C6.3181 3.33341 3.33333 6.31818 3.33333 10.0001C3.33333 13.7173 5.48226 19.1565 10 24.0738C14.5177 19.1565 16.6667 13.7173 16.6667 10.0001C16.6667 6.31818 13.6819 3.33341 10 3.33341ZM0.666668 10.0001C0.666668 4.84542 4.84534 0.666748 10 0.666748C15.1547 0.666748 19.3333 4.84542 19.3333 10.0001C19.3333 14.8697 16.4474 21.4383 10.9428 26.9429C10.4221 27.4636 9.57789 27.4636 9.05719 26.9429C3.55259 21.4383 0.666668 14.8697 0.666668 10.0001Z" fill="#A0ABBB"/>
<path fill-rule="evenodd" clip-rule="evenodd" d="M10 11.3334C10.7364 11.3334 11.3333 10.7365 11.3333 10.0001C11.3333 9.2637 10.7364 8.66675 10 8.66675C9.26362 8.66675 8.66667 9.2637 8.66667 10.0001C8.66667 10.7365 9.26362 11.3334 10 11.3334ZM10 14.0001C12.2091 14.0001 14 12.2092 14 10.0001C14 7.79094 12.2091 6.00008 10 6.00008C7.79086 6.00008 6 7.79094 6 10.0001C6 12.2092 7.79086 14.0001 10 14.0001Z" fill="#A0ABBB"/>
</svg>
