<svg width="232" height="259" viewBox="0 0 232 259" fill="none" xmlns="http://www.w3.org/2000/svg">
<rect width="232" height="259" rx="12" fill="#F7F9FB"/>
<path d="M22.7173 24V16.7273H25.4446C26.0033 16.7273 26.4721 16.8314 26.8509 17.0398C27.232 17.2481 27.5196 17.5346 27.7138 17.8991C27.9103 18.2614 28.0085 18.6733 28.0085 19.1349C28.0085 19.6013 27.9103 20.0156 27.7138 20.3778C27.5173 20.7401 27.2273 21.0253 26.8438 21.2337C26.4602 21.4396 25.9879 21.5426 25.4268 21.5426H23.6193V20.4595H25.2493C25.576 20.4595 25.8435 20.4027 26.0518 20.2891C26.2602 20.1754 26.4141 20.0192 26.5135 19.8203C26.6153 19.6214 26.6662 19.393 26.6662 19.1349C26.6662 18.8769 26.6153 18.6496 26.5135 18.4531C26.4141 18.2566 26.259 18.1039 26.0483 17.995C25.84 17.8838 25.5713 17.8281 25.2422 17.8281H24.0348V24H22.7173ZM29.0961 24V18.5455H30.3425V19.4545H30.3993C30.4988 19.1397 30.6692 18.897 30.9107 18.7266C31.1545 18.5537 31.4327 18.4673 31.7452 18.4673C31.8162 18.4673 31.8955 18.4709 31.9831 18.478C32.0731 18.4827 32.1477 18.491 32.2069 18.5028V19.6854C32.1524 19.6664 32.066 19.6499 31.9476 19.6357C31.8316 19.6191 31.7192 19.6108 31.6103 19.6108C31.3759 19.6108 31.1652 19.6617 30.9782 19.7635C30.7935 19.8629 30.6479 20.0014 30.5414 20.179C30.4348 20.3565 30.3816 20.5613 30.3816 20.7933V24H29.0961ZM35.2156 24.1065C34.6829 24.1065 34.2212 23.9893 33.8306 23.755C33.44 23.5206 33.137 23.1927 32.9215 22.7713C32.7085 22.3499 32.6019 21.8575 32.6019 21.294C32.6019 20.7306 32.7085 20.237 32.9215 19.8132C33.137 19.3894 33.44 19.0604 33.8306 18.826C34.2212 18.5916 34.6829 18.4744 35.2156 18.4744C35.7482 18.4744 36.2099 18.5916 36.6005 18.826C36.9911 19.0604 37.293 19.3894 37.506 19.8132C37.7215 20.237 37.8292 20.7306 37.8292 21.294C37.8292 21.8575 37.7215 22.3499 37.506 22.7713C37.293 23.1927 36.9911 23.5206 36.6005 23.755C36.2099 23.9893 35.7482 24.1065 35.2156 24.1065ZM35.2227 23.0767C35.5115 23.0767 35.753 22.9974 35.9471 22.8388C36.1412 22.6778 36.2856 22.4624 36.3803 22.1925C36.4774 21.9226 36.5259 21.6219 36.5259 21.2905C36.5259 20.9567 36.4774 20.6548 36.3803 20.3849C36.2856 20.1127 36.1412 19.8961 35.9471 19.7351C35.753 19.5741 35.5115 19.4936 35.2227 19.4936C34.9267 19.4936 34.6805 19.5741 34.484 19.7351C34.2899 19.8961 34.1443 20.1127 34.0472 20.3849C33.9525 20.6548 33.9052 20.9567 33.9052 21.2905C33.9052 21.6219 33.9525 21.9226 34.0472 22.1925C34.1443 22.4624 34.2899 22.6778 34.484 22.8388C34.6805 22.9974 34.9267 23.0767 35.2227 23.0767ZM38.9203 18.5455H40.2058V24.3125C40.2058 24.7055 40.1312 25.0298 39.9821 25.2855C39.8329 25.5412 39.6175 25.7318 39.3358 25.8572C39.054 25.9827 38.7119 26.0455 38.3095 26.0455C38.2621 26.0455 38.2183 26.0443 38.1781 26.0419C38.1378 26.0419 38.094 26.0407 38.0467 26.0384V24.9908C38.0822 24.9931 38.1142 24.9943 38.1426 24.9943C38.171 24.9967 38.2006 24.9979 38.2314 24.9979C38.4776 24.9979 38.6539 24.9375 38.7605 24.8168C38.867 24.6984 38.9203 24.5244 38.9203 24.2947V18.5455ZM39.5595 17.7713C39.3535 17.7713 39.1771 17.7038 39.0304 17.5689C38.8859 17.4316 38.8137 17.267 38.8137 17.0753C38.8137 16.8812 38.8859 16.7166 39.0304 16.5817C39.1771 16.4444 39.3535 16.3757 39.5595 16.3757C39.7631 16.3757 39.9371 16.4444 40.0815 16.5817C40.2283 16.7166 40.3017 16.8812 40.3017 17.0753C40.3017 17.267 40.2283 17.4316 40.0815 17.5689C39.9371 17.7038 39.7631 17.7713 39.5595 17.7713ZM43.9425 24.1065C43.3956 24.1065 42.9233 23.9929 42.5256 23.7656C42.1302 23.536 41.826 23.2116 41.6129 22.7926C41.3999 22.3712 41.2933 21.8752 41.2933 21.3047C41.2933 20.7436 41.3999 20.2512 41.6129 19.8274C41.8284 19.4013 42.129 19.0698 42.5149 18.8331C42.9008 18.594 43.3542 18.4744 43.875 18.4744C44.2112 18.4744 44.5284 18.5289 44.8267 18.6378C45.1274 18.7443 45.3925 18.91 45.6222 19.1349C45.8542 19.3598 46.0365 19.6463 46.169 19.9943C46.3016 20.34 46.3679 20.7519 46.3679 21.2301V21.6243H41.897V20.7578H45.1357C45.1333 20.5116 45.08 20.2926 44.9759 20.1009C44.8717 19.9067 44.7261 19.754 44.5391 19.6428C44.3544 19.5315 44.139 19.4759 43.8928 19.4759C43.63 19.4759 43.3991 19.5398 43.2003 19.6676C43.0014 19.7931 42.8464 19.9588 42.7351 20.1648C42.6262 20.3684 42.5705 20.5921 42.5682 20.8359V21.5923C42.5682 21.9096 42.6262 22.1818 42.7422 22.4091C42.8582 22.634 43.0204 22.8068 43.2287 22.9276C43.437 23.0459 43.6809 23.1051 43.9602 23.1051C44.1473 23.1051 44.3165 23.0791 44.468 23.027C44.6196 22.9725 44.7509 22.8932 44.8622 22.7891C44.9735 22.6849 45.0575 22.5559 45.1143 22.402L46.3146 22.5369C46.2389 22.8542 46.0945 23.1312 45.8814 23.3679C45.6707 23.6023 45.4008 23.7846 45.0717 23.9148C44.7427 24.0426 44.3662 24.1065 43.9425 24.1065ZM49.8347 24.1065C49.2902 24.1065 48.8226 23.987 48.432 23.7479C48.0437 23.5088 47.7443 23.1785 47.5336 22.7571C47.3252 22.3333 47.2211 21.8456 47.2211 21.294C47.2211 20.7401 47.3276 20.2512 47.5407 19.8274C47.7537 19.4013 48.0544 19.0698 48.4426 18.8331C48.8333 18.594 49.2949 18.4744 49.8276 18.4744C50.2703 18.4744 50.6621 18.5561 51.003 18.7195C51.3463 18.8804 51.6197 19.1089 51.8233 19.4048C52.0269 19.6984 52.1429 20.0417 52.1713 20.4347H50.9426C50.8929 20.1719 50.7746 19.9529 50.5875 19.7777C50.4029 19.6001 50.1555 19.5114 49.8453 19.5114C49.5826 19.5114 49.3517 19.5824 49.1529 19.7244C48.954 19.8641 48.7989 20.0653 48.6877 20.3281C48.5788 20.5909 48.5243 20.9058 48.5243 21.2727C48.5243 21.6444 48.5788 21.964 48.6877 22.2315C48.7966 22.4967 48.9493 22.7015 49.1458 22.8459C49.3446 22.9879 49.5778 23.0589 49.8453 23.0589C50.0347 23.0589 50.204 23.0234 50.3532 22.9524C50.5047 22.879 50.6313 22.7737 50.7331 22.6364C50.8349 22.4991 50.9048 22.3321 50.9426 22.1357H52.1713C52.1406 22.5215 52.0269 22.8636 51.8304 23.1619C51.6339 23.4579 51.3664 23.6899 51.0279 23.858C50.6893 24.0237 50.2916 24.1065 49.8347 24.1065ZM55.9506 18.5455V19.5398H52.815V18.5455H55.9506ZM53.5891 17.2386H54.8746V22.3594C54.8746 22.5322 54.9007 22.6648 54.9528 22.7571C55.0072 22.8471 55.0782 22.9086 55.1658 22.9418C55.2534 22.9749 55.3505 22.9915 55.457 22.9915C55.5375 22.9915 55.6109 22.9856 55.6772 22.9737C55.7459 22.9619 55.7979 22.9512 55.8335 22.9418L56.0501 23.9467C55.9814 23.9704 55.8832 23.9964 55.7553 24.0249C55.6299 24.0533 55.476 24.0698 55.2937 24.0746C54.9717 24.084 54.6817 24.0355 54.4237 23.929C54.1656 23.8201 53.9608 23.652 53.8093 23.4247C53.6602 23.1974 53.5868 22.9134 53.5891 22.5724V17.2386ZM63.5154 18.7266C63.4823 18.4164 63.3426 18.175 63.0964 18.0021C62.8526 17.8293 62.5353 17.7429 62.1447 17.7429C61.8701 17.7429 61.6345 17.7843 61.438 17.8672C61.2415 17.95 61.0912 18.0625 60.987 18.2045C60.8829 18.3466 60.8296 18.5088 60.8272 18.6911C60.8272 18.8426 60.8616 18.974 60.9302 19.0852C61.0012 19.1965 61.0971 19.2912 61.2179 19.3693C61.3386 19.4451 61.4724 19.509 61.6191 19.5611C61.7659 19.6132 61.9139 19.657 62.063 19.6925L62.7449 19.8629C63.0195 19.9268 63.2834 20.0133 63.5368 20.1222C63.7924 20.2311 64.0209 20.3684 64.2221 20.5341C64.4257 20.6998 64.5867 20.8999 64.7051 21.1342C64.8234 21.3686 64.8826 21.6432 64.8826 21.9581C64.8826 22.3842 64.7737 22.7595 64.5559 23.0838C64.3381 23.4058 64.0233 23.6579 63.6113 23.8402C63.2018 24.0201 62.7058 24.1101 62.1234 24.1101C61.5576 24.1101 61.0663 24.0225 60.6497 23.8473C60.2354 23.6721 59.911 23.4164 59.6767 23.0803C59.4447 22.7441 59.3192 22.3345 59.3002 21.8516H60.5964C60.6154 22.1049 60.6935 22.3156 60.8308 22.4837C60.9681 22.6518 61.1468 22.7772 61.367 22.8601C61.5895 22.9429 61.8381 22.9844 62.1127 22.9844C62.3992 22.9844 62.6502 22.9418 62.8656 22.8565C63.0834 22.7689 63.2538 22.6482 63.377 22.4943C63.5001 22.3381 63.5628 22.1558 63.5652 21.9474C63.5628 21.758 63.5072 21.6018 63.3983 21.4787C63.2894 21.3532 63.1367 21.2491 62.9402 21.1662C62.746 21.081 62.5188 21.0052 62.2583 20.9389L61.4309 20.7259C60.832 20.572 60.3585 20.3388 60.0105 20.0263C59.6648 19.7114 59.492 19.2936 59.492 18.7727C59.492 18.3442 59.608 17.969 59.84 17.647C60.0744 17.325 60.3928 17.0753 60.7953 16.8977C61.1977 16.7178 61.6535 16.6278 62.1625 16.6278C62.6786 16.6278 63.1307 16.7178 63.519 16.8977C63.9096 17.0753 64.2162 17.3227 64.4387 17.6399C64.6613 17.9548 64.7761 18.317 64.7832 18.7266H63.5154ZM68.7241 18.5455V19.5398H65.5884V18.5455H68.7241ZM66.3626 17.2386H67.6481V22.3594C67.6481 22.5322 67.6741 22.6648 67.7262 22.7571C67.7807 22.8471 67.8517 22.9086 67.9393 22.9418C68.0269 22.9749 68.1239 22.9915 68.2305 22.9915C68.311 22.9915 68.3844 22.9856 68.4506 22.9737C68.5193 22.9619 68.5714 22.9512 68.6069 22.9418L68.8235 23.9467C68.7549 23.9704 68.6566 23.9964 68.5288 24.0249C68.4033 24.0533 68.2494 24.0698 68.0671 24.0746C67.7451 24.084 67.4551 24.0355 67.1971 23.929C66.939 23.8201 66.7343 23.652 66.5827 23.4247C66.4336 23.1974 66.3602 22.9134 66.3626 22.5724V17.2386ZM71.3688 24.1101C71.0231 24.1101 70.7118 24.0485 70.4348 23.9254C70.1602 23.8 69.9424 23.6153 69.7814 23.3714C69.6228 23.1276 69.5435 22.8269 69.5435 22.4695C69.5435 22.1617 69.6003 21.9072 69.714 21.706C69.8276 21.5047 69.9827 21.3438 70.1792 21.223C70.3757 21.1023 70.597 21.0111 70.8432 20.9496C71.0918 20.8857 71.3487 20.8395 71.6138 20.8111C71.9334 20.7779 72.1926 20.7483 72.3915 20.7223C72.5904 20.6939 72.7348 20.6513 72.8248 20.5945C72.9171 20.5353 72.9632 20.4441 72.9632 20.321V20.2997C72.9632 20.0322 72.8839 19.825 72.7253 19.6783C72.5667 19.5315 72.3382 19.4581 72.04 19.4581C71.7251 19.4581 71.4753 19.5268 71.2907 19.6641C71.1084 19.8014 70.9853 19.9635 70.9213 20.1506L69.7211 19.9801C69.8158 19.6487 69.972 19.3717 70.1898 19.1491C70.4076 18.9242 70.6739 18.7562 70.9888 18.6449C71.3037 18.5312 71.6517 18.4744 72.0328 18.4744C72.2956 18.4744 72.5572 18.5052 72.8176 18.5668C73.0781 18.6283 73.316 18.7301 73.5314 18.8722C73.7469 19.0118 73.9197 19.2024 74.0499 19.4439C74.1825 19.6854 74.2488 19.9872 74.2488 20.3494V24H73.013V23.2507H72.9703C72.8922 23.4022 72.7821 23.5443 72.6401 23.6768C72.5004 23.8071 72.324 23.9124 72.111 23.9929C71.9003 24.071 71.6529 24.1101 71.3688 24.1101ZM71.7026 23.1655C71.9606 23.1655 72.1844 23.1146 72.3738 23.0128C72.5632 22.9086 72.7087 22.7713 72.8105 22.6009C72.9147 22.4304 72.9668 22.2446 72.9668 22.0433V21.4006C72.9266 21.4337 72.8579 21.4645 72.7608 21.4929C72.6661 21.5213 72.5596 21.5462 72.4412 21.5675C72.3229 21.5888 72.2057 21.6077 72.0897 21.6243C71.9737 21.6409 71.873 21.6551 71.7878 21.6669C71.5961 21.6929 71.4244 21.7356 71.2729 21.7947C71.1214 21.8539 71.0018 21.9368 70.9142 22.0433C70.8266 22.1475 70.7828 22.2824 70.7828 22.4482C70.7828 22.6849 70.8693 22.8636 71.0421 22.9844C71.2149 23.1051 71.4351 23.1655 71.7026 23.1655ZM78.2651 18.5455V19.5398H75.1294V18.5455H78.2651ZM75.9036 17.2386H77.1891V22.3594C77.1891 22.5322 77.2151 22.6648 77.2672 22.7571C77.3217 22.8471 77.3927 22.9086 77.4803 22.9418C77.5679 22.9749 77.665 22.9915 77.7715 22.9915C77.852 22.9915 77.9254 22.9856 77.9917 22.9737C78.0603 22.9619 78.1124 22.9512 78.1479 22.9418L78.3645 23.9467C78.2959 23.9704 78.1976 23.9964 78.0698 24.0249C77.9443 24.0533 77.7904 24.0698 77.6081 24.0746C77.2862 24.084 76.9962 24.0355 76.7381 23.929C76.4801 23.8201 76.2753 23.652 76.1238 23.4247C75.9746 23.1974 75.9012 22.9134 75.9036 22.5724V17.2386ZM82.8168 21.706V18.5455H84.1023V24H82.8558V23.0305H82.799C82.6759 23.3359 82.4735 23.5857 82.1918 23.7798C81.9124 23.974 81.5679 24.071 81.1584 24.071C80.8009 24.071 80.4848 23.9917 80.2102 23.8331C79.938 23.6721 79.7249 23.4389 79.571 23.1335C79.4171 22.8258 79.3402 22.4541 79.3402 22.0185V18.5455H80.6257V21.8196C80.6257 22.1652 80.7204 22.4399 80.9098 22.6435C81.0992 22.8471 81.3478 22.9489 81.6555 22.9489C81.8449 22.9489 82.0284 22.9027 82.206 22.8104C82.3835 22.718 82.5291 22.5807 82.6428 22.3984C82.7588 22.2138 82.8168 21.983 82.8168 21.706ZM89.7353 19.9872L88.5634 20.1151C88.5302 19.9967 88.4722 19.8854 88.3894 19.7812C88.3089 19.6771 88.2 19.593 88.0627 19.5291C87.9254 19.4652 87.7573 19.4332 87.5584 19.4332C87.2909 19.4332 87.066 19.4912 86.8837 19.6072C86.7038 19.7232 86.615 19.8736 86.6174 20.0582C86.615 20.2169 86.673 20.3459 86.7914 20.4453C86.9121 20.5447 87.111 20.6264 87.388 20.6903L88.3184 20.8892C88.8345 21.0005 89.218 21.1768 89.4689 21.4183C89.7222 21.6598 89.8501 21.9759 89.8525 22.3665C89.8501 22.7098 89.7495 23.0128 89.5506 23.2756C89.3541 23.536 89.0807 23.7396 88.7303 23.8864C88.3799 24.0331 87.9775 24.1065 87.5229 24.1065C86.8553 24.1065 86.3179 23.9669 85.9107 23.6875C85.5035 23.4058 85.2608 23.014 85.1827 22.5121L86.4363 22.3913C86.4931 22.6375 86.6138 22.8234 86.7985 22.9489C86.9831 23.0743 87.2234 23.1371 87.5194 23.1371C87.8248 23.1371 88.0698 23.0743 88.2544 22.9489C88.4415 22.8234 88.535 22.6683 88.535 22.4837C88.535 22.3274 88.4746 22.1984 88.3539 22.0966C88.2355 21.9948 88.0508 21.9167 87.7999 21.8622L86.8695 21.6669C86.3463 21.558 85.9592 21.3745 85.7083 21.1165C85.4573 20.8561 85.333 20.527 85.3354 20.1293C85.333 19.7931 85.4242 19.5019 85.6088 19.2557C85.7959 19.0071 86.0551 18.8153 86.3865 18.6804C86.7203 18.5431 87.1051 18.4744 87.5407 18.4744C88.1799 18.4744 88.6829 18.6106 89.0499 18.8828C89.4192 19.1551 89.6477 19.5232 89.7353 19.9872Z" fill="#1C1C1C"/>
<path d="M153.779 58.6701C150.455 54.9739 144.765 54.6717 141.069 57.995C137.372 61.3184 137.07 67.0088 140.393 70.705C144.818 75.6261 147.5 82.1141 147.5 89.25C147.5 104.576 135.076 117 119.75 117C104.424 117 92 104.576 92 89.25C92 87.6972 92.1267 86.1807 92.3684 84.7084C93.1739 79.8035 89.8506 75.1744 84.9458 74.3689C80.0409 73.5635 75.4118 76.8867 74.6063 81.7916C74.2068 84.2243 74 86.7163 74 89.25C74 114.517 94.4829 135 119.75 135C145.017 135 165.5 114.517 165.5 89.25C165.5 77.5005 161.059 66.7672 153.779 58.6701Z" fill="#1C1C1C" stroke="#F7F9FB" stroke-width="3" stroke-linecap="round" stroke-linejoin="round"/>
<path d="M153.779 58.6701C150.455 54.9739 144.765 54.6717 141.069 57.995C137.372 61.3184 137.07 67.0088 140.393 70.705C144.818 75.6261 147.5 82.1141 147.5 89.25C147.5 104.576 135.076 117 119.75 117C104.424 117 92 104.576 92 89.25C92 87.6972 92.1267 86.1807 92.3684 84.7084C93.1739 79.8035 89.8506 75.1744 84.9458 74.3689C80.0409 73.5635 75.4118 76.8867 74.6063 81.7916C74.2068 84.2243 74 86.7163 74 89.25C74 114.517 94.4829 135 119.75 135C145.017 135 165.5 114.517 165.5 89.25C165.5 77.5005 161.059 66.7672 153.779 58.6701Z" fill="#ADB9FC" stroke="#F7F9FB" stroke-width="3" stroke-linecap="round" stroke-linejoin="round"/>
<path d="M99.0224 70.705C102.346 67.0088 102.043 61.3184 98.3472 57.995C94.651 54.6717 88.9606 54.9739 85.6372 58.6701C82.1443 62.555 79.3031 67.0471 77.2925 71.975C75.4147 76.5772 77.6233 81.8303 82.2255 83.7081C86.8277 85.5859 92.0808 83.3773 93.9586 78.7751C95.1738 75.7966 96.8959 73.0701 99.0224 70.705Z" fill="#E3F5FF" stroke="#F7F9FB" stroke-width="3" stroke-linecap="round" stroke-linejoin="round"/>
<path d="M103.712 66.4688C108.203 63.3361 113.655 61.5 119.563 61.5C125.471 61.5 130.923 63.3361 135.414 66.4688C139.491 69.3124 145.101 68.3128 147.945 64.236C150.788 60.1592 149.789 54.5491 145.712 51.7055C138.298 46.5341 129.271 43.5 119.563 43.5C109.855 43.5 100.828 46.5341 93.4143 51.7055C89.3375 54.5491 88.3378 60.1592 91.1815 64.236C94.0251 68.3128 99.6353 69.3124 103.712 66.4688Z" fill="#54C89F" stroke="#F7F9FB" stroke-width="3" stroke-linecap="round" stroke-linejoin="round"/>
<path d="M151.953 71.558C150.336 68.5951 148.37 65.9435 146.134 63.6264" stroke="#F7F9FB" stroke-width="21" stroke-linecap="round" stroke-linejoin="round"/>
<path d="M156.233 93.1467C157.025 85.9325 155.694 78.4115 151.953 71.558C150.336 68.5951 148.37 65.9435 146.134 63.6264" stroke="#F074A8" stroke-width="15" stroke-linecap="round" stroke-linejoin="round"/>
<path d="M139.251 69.1859C142.992 73.1851 145.585 78.32 146.427 84.1677C147.268 90.0153 146.228 95.6732 143.766 100.565C141.532 105.005 143.321 110.416 147.761 112.65C152.201 114.884 157.612 113.095 159.846 108.655C163.909 100.58 165.626 91.2132 164.243 81.6039C162.861 71.9946 158.572 63.4922 152.397 56.8904C149.002 53.2602 143.307 53.0698 139.676 56.4651C136.046 59.8604 135.856 65.5557 139.251 69.1859Z" fill="#F074A8" stroke="#F7F9FB" stroke-width="3" stroke-linecap="round" stroke-linejoin="round"/>
<path d="M194.101 157.84C193.832 157.835 193.564 157.784 193.296 157.686C193.027 157.588 192.782 157.423 192.56 157.191C192.339 156.956 192.161 156.64 192.027 156.242C191.892 155.841 191.825 155.338 191.825 154.733C191.825 154.153 191.88 153.64 191.988 153.193C192.097 152.743 192.255 152.365 192.461 152.058C192.668 151.749 192.917 151.515 193.209 151.355C193.503 151.195 193.835 151.115 194.203 151.115C194.57 151.115 194.896 151.189 195.181 151.336C195.469 151.48 195.703 151.683 195.884 151.943C196.065 152.203 196.183 152.502 196.236 152.841H195.456C195.384 152.547 195.243 152.303 195.034 152.109C194.825 151.915 194.548 151.818 194.203 151.818C193.696 151.818 193.297 152.039 193.005 152.48C192.715 152.921 192.569 153.54 192.567 154.337H192.618C192.737 154.156 192.879 154.001 193.043 153.873C193.209 153.743 193.392 153.643 193.593 153.573C193.793 153.503 194.005 153.467 194.229 153.467C194.604 153.467 194.947 153.561 195.258 153.749C195.569 153.934 195.818 154.191 196.006 154.519C196.193 154.845 196.287 155.219 196.287 155.641C196.287 156.045 196.196 156.416 196.015 156.753C195.834 157.087 195.58 157.354 195.251 157.552C194.925 157.748 194.542 157.844 194.101 157.84ZM194.101 157.136C194.369 157.136 194.61 157.069 194.823 156.935C195.038 156.801 195.208 156.621 195.331 156.395C195.457 156.169 195.52 155.918 195.52 155.641C195.52 155.37 195.459 155.124 195.338 154.902C195.218 154.679 195.053 154.501 194.842 154.369C194.634 154.237 194.395 154.17 194.126 154.17C193.924 154.17 193.736 154.211 193.561 154.292C193.386 154.371 193.233 154.479 193.101 154.618C192.971 154.756 192.868 154.915 192.794 155.094C192.719 155.271 192.682 155.457 192.682 155.653C192.682 155.913 192.743 156.156 192.864 156.382C192.988 156.608 193.156 156.79 193.369 156.929C193.584 157.067 193.828 157.136 194.101 157.136ZM200.88 156.523V156.178C200.88 155.939 200.929 155.721 201.027 155.522C201.128 155.322 201.273 155.162 201.462 155.043C201.654 154.922 201.886 154.861 202.159 154.861C202.436 154.861 202.668 154.922 202.856 155.043C203.043 155.162 203.185 155.322 203.281 155.522C203.377 155.721 203.425 155.939 203.425 156.178V156.523C203.425 156.761 203.376 156.981 203.277 157.181C203.182 157.379 203.039 157.539 202.849 157.661C202.662 157.78 202.432 157.84 202.159 157.84C201.882 157.84 201.649 157.78 201.459 157.661C201.269 157.539 201.126 157.379 201.027 157.181C200.929 156.981 200.88 156.761 200.88 156.523ZM201.532 156.178V156.523C201.532 156.721 201.579 156.899 201.673 157.056C201.767 157.212 201.929 157.29 202.159 157.29C202.383 157.29 202.54 157.212 202.632 157.056C202.726 156.899 202.773 156.721 202.773 156.523V156.178C202.773 155.979 202.728 155.803 202.638 155.647C202.549 155.489 202.389 155.411 202.159 155.411C201.935 155.411 201.774 155.489 201.676 155.647C201.58 155.803 201.532 155.979 201.532 156.178ZM197.621 152.777V152.432C197.621 152.193 197.67 151.975 197.768 151.777C197.868 151.576 198.013 151.417 198.202 151.297C198.394 151.176 198.626 151.115 198.899 151.115C199.176 151.115 199.408 151.176 199.596 151.297C199.783 151.417 199.925 151.576 200.021 151.777C200.117 151.975 200.165 152.193 200.165 152.432V152.777C200.165 153.016 200.116 153.235 200.018 153.435C199.922 153.634 199.779 153.793 199.589 153.915C199.402 154.034 199.172 154.094 198.899 154.094C198.622 154.094 198.389 154.034 198.199 153.915C198.009 153.793 197.866 153.634 197.768 153.435C197.67 153.235 197.621 153.016 197.621 152.777ZM198.273 152.432V152.777C198.273 152.975 198.319 153.153 198.413 153.311C198.507 153.466 198.669 153.544 198.899 153.544C199.123 153.544 199.28 153.466 199.372 153.311C199.466 153.153 199.513 152.975 199.513 152.777V152.432C199.513 152.234 199.468 152.057 199.378 151.901C199.289 151.744 199.129 151.665 198.899 151.665C198.675 151.665 198.514 151.744 198.416 151.901C198.32 152.057 198.273 152.234 198.273 152.432ZM197.863 157.75L202.363 151.205H203.092L198.592 157.75H197.863Z" fill="#1C1C1C"/>
<path d="M191.774 183.908V183.256L194.651 178.705H195.124V179.715H194.804L192.631 183.153V183.205H196.504V183.908H191.774ZM194.855 185.25V183.71V183.406V178.705H195.609V185.25H194.855ZM197.702 185.25V184.675L199.863 182.31C200.116 182.033 200.325 181.792 200.489 181.587C200.653 181.381 200.774 181.187 200.853 181.006C200.934 180.822 200.975 180.631 200.975 180.43C200.975 180.2 200.919 180.001 200.809 179.833C200.7 179.664 200.551 179.534 200.361 179.443C200.171 179.351 199.958 179.305 199.722 179.305C199.47 179.305 199.251 179.358 199.064 179.462C198.878 179.564 198.734 179.708 198.632 179.893C198.532 180.079 198.482 180.296 198.482 180.545H197.728C197.728 180.162 197.816 179.825 197.993 179.536C198.17 179.246 198.41 179.02 198.715 178.858C199.022 178.696 199.366 178.615 199.747 178.615C200.131 178.615 200.471 178.696 200.767 178.858C201.063 179.02 201.295 179.238 201.464 179.513C201.632 179.788 201.716 180.094 201.716 180.43C201.716 180.671 201.673 180.907 201.585 181.137C201.5 181.365 201.351 181.619 201.138 181.901C200.927 182.18 200.634 182.521 200.259 182.923L198.789 184.496V184.547H201.831V185.25H197.702ZM206.488 184.023V183.678C206.488 183.439 206.537 183.221 206.635 183.022C206.735 182.822 206.88 182.662 207.07 182.543C207.261 182.422 207.494 182.361 207.766 182.361C208.043 182.361 208.276 182.422 208.463 182.543C208.651 182.662 208.792 182.822 208.888 183.022C208.984 183.221 209.032 183.439 209.032 183.678V184.023C209.032 184.261 208.983 184.481 208.885 184.681C208.789 184.879 208.646 185.039 208.457 185.161C208.269 185.28 208.039 185.34 207.766 185.34C207.489 185.34 207.256 185.28 207.066 185.161C206.877 185.039 206.733 184.879 206.635 184.681C206.537 184.481 206.488 184.261 206.488 184.023ZM207.14 183.678V184.023C207.14 184.221 207.187 184.399 207.281 184.556C207.374 184.712 207.536 184.79 207.766 184.79C207.99 184.79 208.148 184.712 208.239 184.556C208.333 184.399 208.38 184.221 208.38 184.023V183.678C208.38 183.479 208.335 183.303 208.246 183.147C208.156 182.989 207.996 182.911 207.766 182.911C207.543 182.911 207.382 182.989 207.284 183.147C207.188 183.303 207.14 183.479 207.14 183.678ZM203.228 180.277V179.932C203.228 179.693 203.277 179.475 203.375 179.277C203.475 179.076 203.62 178.917 203.81 178.797C204.001 178.676 204.234 178.615 204.506 178.615C204.783 178.615 205.016 178.676 205.203 178.797C205.391 178.917 205.532 179.076 205.628 179.277C205.724 179.475 205.772 179.693 205.772 179.932V180.277C205.772 180.516 205.723 180.735 205.625 180.935C205.529 181.134 205.386 181.293 205.197 181.415C205.009 181.534 204.779 181.594 204.506 181.594C204.229 181.594 203.996 181.534 203.806 181.415C203.617 181.293 203.473 181.134 203.375 180.935C203.277 180.735 203.228 180.516 203.228 180.277ZM203.88 179.932V180.277C203.88 180.475 203.927 180.653 204.021 180.811C204.114 180.966 204.276 181.044 204.506 181.044C204.73 181.044 204.888 180.966 204.979 180.811C205.073 180.653 205.12 180.475 205.12 180.277V179.932C205.12 179.734 205.075 179.557 204.986 179.401C204.896 179.244 204.736 179.165 204.506 179.165C204.283 179.165 204.122 179.244 204.024 179.401C203.928 179.557 203.88 179.734 203.88 179.932ZM203.471 185.25L207.971 178.705H208.7L204.2 185.25H203.471Z" fill="#1C1C1C"/>
<path d="M191.928 212.75V212.175L194.088 209.81C194.342 209.533 194.55 209.292 194.714 209.087C194.879 208.881 195 208.687 195.079 208.506C195.16 208.322 195.2 208.131 195.2 207.93C195.2 207.7 195.145 207.501 195.034 207.333C194.925 207.164 194.776 207.034 194.587 206.943C194.397 206.851 194.184 206.805 193.947 206.805C193.696 206.805 193.477 206.858 193.289 206.962C193.104 207.064 192.96 207.208 192.858 207.393C192.757 207.579 192.707 207.796 192.707 208.045H191.953C191.953 207.662 192.042 207.325 192.218 207.036C192.395 206.746 192.636 206.52 192.941 206.358C193.248 206.196 193.592 206.115 193.973 206.115C194.357 206.115 194.696 206.196 194.993 206.358C195.289 206.52 195.521 206.738 195.689 207.013C195.858 207.288 195.942 207.594 195.942 207.93C195.942 208.171 195.898 208.407 195.811 208.637C195.725 208.865 195.576 209.119 195.363 209.401C195.152 209.68 194.859 210.021 194.484 210.423L193.014 211.996V212.047H196.057V212.75H191.928ZM199.512 212.84C199.03 212.84 198.62 212.708 198.281 212.446C197.942 212.182 197.684 211.8 197.505 211.299C197.326 210.796 197.236 210.189 197.236 209.477C197.236 208.77 197.326 208.166 197.505 207.665C197.686 207.162 197.946 206.779 198.284 206.515C198.625 206.248 199.034 206.115 199.512 206.115C199.989 206.115 200.397 206.248 200.736 206.515C201.077 206.779 201.337 207.162 201.516 207.665C201.697 208.166 201.787 208.77 201.787 209.477C201.787 210.189 201.698 210.796 201.519 211.299C201.34 211.8 201.081 212.182 200.742 212.446C200.403 212.708 199.993 212.84 199.512 212.84ZM199.512 212.136C199.989 212.136 200.36 211.906 200.624 211.446C200.888 210.986 201.02 210.33 201.02 209.477C201.02 208.911 200.96 208.428 200.838 208.03C200.719 207.631 200.546 207.327 200.32 207.119C200.097 206.91 199.827 206.805 199.512 206.805C199.039 206.805 198.669 207.039 198.403 207.505C198.136 207.97 198.003 208.627 198.003 209.477C198.003 210.044 198.063 210.526 198.182 210.922C198.301 211.318 198.473 211.62 198.697 211.826C198.923 212.033 199.194 212.136 199.512 212.136ZM206.338 211.523V211.178C206.338 210.939 206.387 210.721 206.485 210.522C206.586 210.322 206.73 210.162 206.92 210.043C207.112 209.922 207.344 209.861 207.617 209.861C207.894 209.861 208.126 209.922 208.314 210.043C208.501 210.162 208.643 210.322 208.739 210.522C208.835 210.721 208.882 210.939 208.882 211.178V211.523C208.882 211.761 208.833 211.981 208.735 212.181C208.64 212.379 208.497 212.539 208.307 212.661C208.12 212.78 207.89 212.84 207.617 212.84C207.34 212.84 207.107 212.78 206.917 212.661C206.727 212.539 206.583 212.379 206.485 212.181C206.387 211.981 206.338 211.761 206.338 211.523ZM206.99 211.178V211.523C206.99 211.721 207.037 211.899 207.131 212.056C207.225 212.212 207.387 212.29 207.617 212.29C207.841 212.29 207.998 212.212 208.09 212.056C208.184 211.899 208.23 211.721 208.23 211.523V211.178C208.23 210.979 208.186 210.803 208.096 210.647C208.007 210.489 207.847 210.411 207.617 210.411C207.393 210.411 207.232 210.489 207.134 210.647C207.038 210.803 206.99 210.979 206.99 211.178ZM203.078 207.777V207.432C203.078 207.193 203.127 206.975 203.225 206.777C203.326 206.576 203.471 206.417 203.66 206.297C203.852 206.176 204.084 206.115 204.357 206.115C204.634 206.115 204.866 206.176 205.054 206.297C205.241 206.417 205.383 206.576 205.479 206.777C205.575 206.975 205.623 207.193 205.623 207.432V207.777C205.623 208.016 205.574 208.235 205.475 208.435C205.38 208.634 205.237 208.793 205.047 208.915C204.86 209.034 204.63 209.094 204.357 209.094C204.08 209.094 203.847 209.034 203.657 208.915C203.467 208.793 203.324 208.634 203.225 208.435C203.127 208.235 203.078 208.016 203.078 207.777ZM203.73 207.432V207.777C203.73 207.975 203.777 208.153 203.871 208.311C203.965 208.466 204.127 208.544 204.357 208.544C204.581 208.544 204.738 208.466 204.83 208.311C204.924 208.153 204.971 207.975 204.971 207.777V207.432C204.971 207.234 204.926 207.057 204.836 206.901C204.747 206.744 204.587 206.665 204.357 206.665C204.133 206.665 203.972 206.744 203.874 206.901C203.778 207.057 203.73 207.234 203.73 207.432ZM203.321 212.75L207.821 206.205H208.55L204.05 212.75H203.321Z" fill="#1C1C1C"/>
<path d="M194.139 240.839C193.717 240.839 193.341 240.767 193.011 240.622C192.683 240.477 192.422 240.276 192.228 240.018C192.036 239.758 191.932 239.457 191.915 239.114H192.72C192.737 239.325 192.81 239.507 192.938 239.66C193.065 239.811 193.233 239.929 193.439 240.012C193.646 240.095 193.875 240.136 194.126 240.136C194.408 240.136 194.657 240.087 194.874 239.989C195.092 239.891 195.262 239.755 195.386 239.58C195.509 239.406 195.571 239.203 195.571 238.973C195.571 238.732 195.511 238.52 195.392 238.337C195.273 238.152 195.098 238.007 194.868 237.902C194.638 237.798 194.357 237.746 194.024 237.746H193.5V237.043H194.024C194.284 237.043 194.512 236.996 194.708 236.902C194.906 236.808 195.061 236.676 195.172 236.506C195.284 236.335 195.341 236.135 195.341 235.905C195.341 235.683 195.292 235.49 195.194 235.326C195.096 235.162 194.957 235.034 194.778 234.943C194.602 234.851 194.393 234.805 194.152 234.805C193.926 234.805 193.713 234.847 193.513 234.93C193.315 235.011 193.153 235.129 193.027 235.285C192.901 235.438 192.833 235.624 192.822 235.841H192.055C192.068 235.498 192.172 235.197 192.365 234.94C192.559 234.68 192.813 234.477 193.126 234.332C193.441 234.187 193.788 234.115 194.165 234.115C194.57 234.115 194.917 234.197 195.207 234.361C195.496 234.523 195.719 234.737 195.875 235.004C196.03 235.27 196.108 235.558 196.108 235.866C196.108 236.235 196.011 236.549 195.817 236.809C195.625 237.069 195.364 237.249 195.034 237.349V237.401C195.447 237.469 195.77 237.645 196.002 237.928C196.235 238.209 196.351 238.558 196.351 238.973C196.351 239.329 196.254 239.648 196.06 239.932C195.868 240.213 195.606 240.435 195.274 240.597C194.941 240.759 194.563 240.839 194.139 240.839ZM197.658 240.75V240.175L199.819 237.81C200.072 237.533 200.281 237.292 200.445 237.087C200.609 236.881 200.73 236.687 200.809 236.506C200.89 236.322 200.931 236.131 200.931 235.93C200.931 235.7 200.875 235.501 200.765 235.333C200.656 235.164 200.507 235.034 200.317 234.943C200.127 234.851 199.914 234.805 199.678 234.805C199.426 234.805 199.207 234.858 199.02 234.962C198.834 235.064 198.69 235.208 198.588 235.393C198.488 235.579 198.438 235.796 198.438 236.045H197.684C197.684 235.662 197.772 235.325 197.949 235.036C198.126 234.746 198.366 234.52 198.671 234.358C198.978 234.196 199.322 234.115 199.703 234.115C200.087 234.115 200.427 234.196 200.723 234.358C201.019 234.52 201.251 234.738 201.42 235.013C201.588 235.288 201.672 235.594 201.672 235.93C201.672 236.171 201.629 236.407 201.541 236.637C201.456 236.865 201.307 237.119 201.094 237.401C200.883 237.68 200.59 238.021 200.215 238.423L198.745 239.996V240.047H201.787V240.75H197.658ZM206.444 239.523V239.178C206.444 238.939 206.493 238.721 206.591 238.522C206.691 238.322 206.836 238.162 207.026 238.043C207.217 237.922 207.45 237.861 207.722 237.861C207.999 237.861 208.232 237.922 208.419 238.043C208.607 238.162 208.748 238.322 208.844 238.522C208.94 238.721 208.988 238.939 208.988 239.178V239.523C208.988 239.761 208.939 239.981 208.841 240.181C208.745 240.379 208.602 240.539 208.413 240.661C208.225 240.78 207.995 240.839 207.722 240.839C207.445 240.839 207.212 240.78 207.022 240.661C206.833 240.539 206.689 240.379 206.591 240.181C206.493 239.981 206.444 239.761 206.444 239.523ZM207.096 239.178V239.523C207.096 239.721 207.143 239.899 207.237 240.056C207.33 240.212 207.492 240.29 207.722 240.29C207.946 240.29 208.104 240.212 208.195 240.056C208.289 239.899 208.336 239.721 208.336 239.523V239.178C208.336 238.979 208.291 238.803 208.202 238.647C208.112 238.489 207.952 238.411 207.722 238.411C207.499 238.411 207.338 238.489 207.24 238.647C207.144 238.803 207.096 238.979 207.096 239.178ZM203.184 235.777V235.432C203.184 235.193 203.233 234.975 203.331 234.777C203.431 234.576 203.576 234.417 203.766 234.297C203.957 234.176 204.19 234.115 204.462 234.115C204.739 234.115 204.972 234.176 205.159 234.297C205.347 234.417 205.488 234.576 205.584 234.777C205.68 234.975 205.728 235.193 205.728 235.432V235.777C205.728 236.016 205.679 236.235 205.581 236.435C205.485 236.634 205.342 236.793 205.153 236.915C204.965 237.034 204.735 237.094 204.462 237.094C204.185 237.094 203.952 237.034 203.762 236.915C203.573 236.793 203.429 236.634 203.331 236.435C203.233 236.235 203.184 236.016 203.184 235.777ZM203.836 235.432V235.777C203.836 235.975 203.883 236.153 203.977 236.311C204.07 236.466 204.232 236.544 204.462 236.544C204.686 236.544 204.844 236.466 204.935 236.311C205.029 236.153 205.076 235.975 205.076 235.777V235.432C205.076 235.234 205.031 235.057 204.942 234.901C204.852 234.744 204.692 234.665 204.462 234.665C204.239 234.665 204.078 234.744 203.98 234.901C203.884 235.057 203.836 235.234 203.836 235.432ZM203.427 240.75L207.927 234.205H208.656L204.156 240.75H203.427Z" fill="#1C1C1C"/>
<path d="M31.75 154.5C31.75 155.743 30.7426 156.75 29.5 156.75C28.2574 156.75 27.25 155.743 27.25 154.5C27.25 153.257 28.2574 152.25 29.5 152.25C30.7426 152.25 31.75 153.257 31.75 154.5Z" fill="#E3F5FF"/>
<path d="M38.3125 157.5H36.2926V150.955H38.402C39.0369 150.955 39.5803 151.086 40.032 151.348C40.4837 151.608 40.8299 151.982 41.0707 152.469C41.3114 152.955 41.4318 153.537 41.4318 154.215C41.4318 154.896 41.3104 155.483 41.0675 155.976C40.8246 156.466 40.4709 156.843 40.0064 157.107C39.5419 157.369 38.9773 157.5 38.3125 157.5ZM37.0852 156.797H38.2614C38.8026 156.797 39.2511 156.693 39.6069 156.484C39.9627 156.275 40.228 155.978 40.4027 155.592C40.5774 155.206 40.6648 154.747 40.6648 154.215C40.6648 153.686 40.5785 153.231 40.4059 152.85C40.2333 152.466 39.9755 152.172 39.6325 151.968C39.2894 151.761 38.8622 151.658 38.3509 151.658H37.0852V156.797ZM42.6591 157.5V152.591H43.3878V153.332H43.4389C43.5284 153.09 43.6903 152.892 43.9247 152.741C44.1591 152.59 44.4233 152.514 44.7173 152.514C44.7727 152.514 44.842 152.515 44.9251 152.517C45.0082 152.52 45.071 152.523 45.1136 152.527V153.294C45.0881 153.288 45.0295 153.278 44.9379 153.265C44.8484 153.25 44.7536 153.243 44.6534 153.243C44.4148 153.243 44.2017 153.293 44.0142 153.393C43.8288 153.491 43.6818 153.628 43.5732 153.802C43.4666 153.975 43.4134 154.172 43.4134 154.393V157.5H42.6591ZM47.4523 157.615C47.1412 157.615 46.8589 157.556 46.6054 157.439C46.3518 157.32 46.1505 157.148 46.0013 156.925C45.8522 156.699 45.7776 156.426 45.7776 156.107C45.7776 155.825 45.833 155.597 45.9438 155.423C46.0546 155.246 46.2027 155.107 46.3881 155.007C46.5734 154.907 46.778 154.832 47.0017 154.783C47.2275 154.732 47.4545 154.692 47.6824 154.662C47.9807 154.624 48.2226 154.595 48.4079 154.576C48.5954 154.554 48.7318 154.519 48.817 154.47C48.9044 154.421 48.9481 154.336 48.9481 154.215V154.189C48.9481 153.874 48.8618 153.629 48.6892 153.454C48.5187 153.279 48.2599 153.192 47.9126 153.192C47.5525 153.192 47.2702 153.271 47.0656 153.428C46.8611 153.586 46.7172 153.754 46.6341 153.933L45.9182 153.678C46.0461 153.379 46.2165 153.147 46.4296 152.981C46.6448 152.813 46.8792 152.695 47.1327 152.629C47.3884 152.561 47.6398 152.527 47.887 152.527C48.0447 152.527 48.2258 152.546 48.4303 152.585C48.637 152.621 48.8362 152.696 49.028 152.811C49.2219 152.927 49.3827 153.1 49.5106 153.332C49.6384 153.565 49.7023 153.876 49.7023 154.266V157.5H48.9481V156.835H48.9097C48.8586 156.942 48.7734 157.056 48.654 157.177C48.5347 157.299 48.376 157.402 48.1778 157.487C47.9797 157.572 47.7378 157.615 47.4523 157.615ZM47.5674 156.938C47.8657 156.938 48.1171 156.879 48.3216 156.762C48.5283 156.645 48.6839 156.493 48.7883 156.308C48.8948 156.123 48.9481 155.928 48.9481 155.723V155.033C48.9161 155.071 48.8458 155.106 48.7371 155.138C48.6306 155.168 48.507 155.195 48.3664 155.218C48.2279 155.239 48.0926 155.259 47.9605 155.276C47.8305 155.291 47.7251 155.303 47.6441 155.314C47.4481 155.34 47.2648 155.381 47.0944 155.439C46.926 155.494 46.7897 155.578 46.6853 155.691C46.583 155.802 46.5319 155.953 46.5319 156.145C46.5319 156.407 46.6288 156.605 46.8227 156.739C47.0187 156.871 47.267 156.938 47.5674 156.938ZM53.2651 152.591V153.23H50.6188V152.591H53.2651ZM51.4114 157.5V151.913C51.4114 151.632 51.4775 151.398 51.6096 151.21C51.7417 151.023 51.9132 150.882 52.1241 150.788C52.3351 150.695 52.5577 150.648 52.7921 150.648C52.9775 150.648 53.1287 150.663 53.2459 150.693C53.3631 150.722 53.4505 150.75 53.508 150.776L53.2907 151.428C53.2523 151.415 53.199 151.399 53.1309 151.38C53.0648 151.36 52.9775 151.351 52.8688 151.351C52.6195 151.351 52.4395 151.414 52.3287 151.539C52.22 151.665 52.1657 151.849 52.1657 152.092V157.5H51.4114ZM56.4571 152.591V153.23H53.9131V152.591H56.4571ZM54.6546 151.415H55.4088V156.094C55.4088 156.307 55.4397 156.467 55.5015 156.573C55.5654 156.678 55.6464 156.748 55.7444 156.784C55.8446 156.818 55.95 156.835 56.0608 156.835C56.1439 156.835 56.2121 156.831 56.2654 156.822C56.3186 156.812 56.3612 156.803 56.3932 156.797L56.5466 157.474C56.4955 157.494 56.4241 157.513 56.3325 157.532C56.2409 157.553 56.1247 157.564 55.9841 157.564C55.771 157.564 55.5622 157.518 55.3577 157.427C55.1553 157.335 54.987 157.195 54.8527 157.008C54.7206 156.82 54.6546 156.584 54.6546 156.298V151.415ZM60.9811 153.69L60.3035 153.882C60.2609 153.769 60.1981 153.659 60.115 153.553C60.034 153.444 59.9232 153.355 59.7826 153.284C59.642 153.214 59.4619 153.179 59.2425 153.179C58.942 153.179 58.6917 153.248 58.4914 153.387C58.2932 153.523 58.1942 153.697 58.1942 153.908C58.1942 154.095 58.2623 154.243 58.3987 154.352C58.5351 154.461 58.7481 154.551 59.0379 154.624L59.7666 154.803C60.2055 154.909 60.5326 155.072 60.7478 155.292C60.963 155.509 61.0706 155.789 61.0706 156.132C61.0706 156.413 60.9896 156.665 60.8277 156.886C60.6679 157.108 60.4442 157.283 60.1565 157.411C59.8689 157.538 59.5344 157.602 59.153 157.602C58.6523 157.602 58.2378 157.494 57.9097 157.276C57.5816 157.059 57.3738 156.742 57.2865 156.324L58.0024 156.145C58.0706 156.409 58.1995 156.607 58.3891 156.739C58.5809 156.871 58.8312 156.938 59.1402 156.938C59.4917 156.938 59.7709 156.863 59.9775 156.714C60.1863 156.563 60.2908 156.381 60.2908 156.17C60.2908 156 60.2311 155.857 60.1118 155.742C59.9925 155.625 59.8092 155.538 59.5621 155.48L58.7439 155.288C58.2943 155.182 57.964 155.017 57.7531 154.793C57.5443 154.567 57.4399 154.285 57.4399 153.946C57.4399 153.669 57.5177 153.424 57.6732 153.211C57.8309 152.998 58.045 152.831 58.3156 152.709C58.5883 152.588 58.8973 152.527 59.2425 152.527C59.7283 152.527 60.1096 152.634 60.3866 152.847C60.6658 153.06 60.8639 153.341 60.9811 153.69Z" fill="#1C1C1C"/>
<path d="M31.75 181.5C31.75 182.743 30.7426 183.75 29.5 183.75C28.2574 183.75 27.25 182.743 27.25 181.5C27.25 180.257 28.2574 179.25 29.5 179.25C30.7426 179.25 31.75 180.257 31.75 181.5Z" fill="#ADB9FC"/>
<path d="M41.483 177.955V184.5H40.7159L37.1491 179.361H37.0852V184.5H36.2926V177.955H37.0597L40.6392 183.107H40.7031V177.955H41.483ZM45.0249 184.602C44.5519 184.602 44.1439 184.498 43.8009 184.289C43.46 184.078 43.1968 183.784 43.0115 183.407C42.8282 183.028 42.7366 182.587 42.7366 182.084C42.7366 181.581 42.8282 181.138 43.0115 180.754C43.1968 180.369 43.4546 180.068 43.7849 179.853C44.1173 179.636 44.5051 179.527 44.9482 179.527C45.2039 179.527 45.4564 179.57 45.7057 179.655C45.955 179.74 46.1819 179.879 46.3865 180.07C46.591 180.26 46.754 180.511 46.8754 180.825C46.9969 181.138 47.0576 181.523 47.0576 181.982V182.301H43.2735V181.649H46.2906C46.2906 181.372 46.2352 181.125 46.1244 180.908C46.0157 180.69 45.8602 180.519 45.6578 180.393C45.4575 180.267 45.221 180.205 44.9482 180.205C44.6478 180.205 44.3879 180.279 44.1684 180.428C43.9511 180.575 43.7838 180.767 43.6666 181.004C43.5495 181.24 43.4909 181.494 43.4909 181.764V182.199C43.4909 182.57 43.5548 182.884 43.6826 183.142C43.8126 183.397 43.9926 183.592 44.2227 183.727C44.4529 183.859 44.7203 183.925 45.0249 183.925C45.2231 183.925 45.4021 183.897 45.5619 183.842C45.7238 183.784 45.8634 183.699 45.9806 183.586C46.0977 183.471 46.1883 183.328 46.2522 183.158L46.9809 183.362C46.9042 183.609 46.7753 183.827 46.5942 184.014C46.4131 184.2 46.1894 184.344 45.923 184.449C45.6567 184.551 45.3573 184.602 45.0249 184.602ZM50.1865 186.443C49.8222 186.443 49.509 186.396 49.2469 186.303C48.9848 186.211 48.7664 186.09 48.5917 185.938C48.4191 185.789 48.2817 185.629 48.1794 185.459L48.7803 185.037C48.8485 185.126 48.9347 185.229 49.0392 185.344C49.1436 185.461 49.2863 185.562 49.4674 185.647C49.6507 185.735 49.8904 185.778 50.1865 185.778C50.5828 185.778 50.9099 185.683 51.1677 185.491C51.4255 185.299 51.5544 184.999 51.5544 184.59V183.592H51.4905C51.4351 183.682 51.3563 183.793 51.254 183.925C51.1539 184.055 51.009 184.171 50.8193 184.273C50.6318 184.373 50.3783 184.423 50.0587 184.423C49.6624 184.423 49.3066 184.33 48.9912 184.142C48.678 183.955 48.4298 183.682 48.2465 183.324C48.0654 182.966 47.9749 182.531 47.9749 182.02C47.9749 181.517 48.0633 181.079 48.2401 180.706C48.417 180.331 48.6631 180.042 48.9784 179.837C49.2938 179.63 49.6581 179.527 50.0715 179.527C50.3911 179.527 50.6446 179.58 50.8321 179.687C51.0218 179.791 51.1666 179.911 51.2668 180.045C51.3691 180.177 51.4479 180.286 51.5033 180.371H51.58V179.591H52.3087V184.641C52.3087 185.063 52.2128 185.406 52.021 185.67C51.8314 185.936 51.5757 186.131 51.254 186.255C50.9344 186.38 50.5786 186.443 50.1865 186.443ZM50.161 183.746C50.4635 183.746 50.7192 183.677 50.928 183.538C51.1368 183.4 51.2955 183.2 51.4042 182.94C51.5129 182.68 51.5672 182.369 51.5672 182.007C51.5672 181.653 51.5139 181.341 51.4074 181.071C51.3009 180.8 51.1432 180.588 50.9344 180.435C50.7256 180.281 50.4678 180.205 50.161 180.205C49.8414 180.205 49.575 180.286 49.362 180.447C49.151 180.609 48.9923 180.827 48.8857 181.099C48.7813 181.372 48.7291 181.675 48.7291 182.007C48.7291 182.348 48.7824 182.65 48.8889 182.912C48.9976 183.172 49.1574 183.376 49.3683 183.525C49.5814 183.672 49.8456 183.746 50.161 183.746ZM55.6837 184.602C55.2405 184.602 54.8517 184.497 54.5171 184.286C54.1847 184.075 53.9248 183.78 53.7373 183.401C53.5519 183.021 53.4593 182.578 53.4593 182.071C53.4593 181.56 53.5519 181.113 53.7373 180.732C53.9248 180.351 54.1847 180.054 54.5171 179.843C54.8517 179.632 55.2405 179.527 55.6837 179.527C56.1269 179.527 56.5147 179.632 56.847 179.843C57.1816 180.054 57.4415 180.351 57.6269 180.732C57.8144 181.113 57.9081 181.56 57.9081 182.071C57.9081 182.578 57.8144 183.021 57.6269 183.401C57.4415 183.78 57.1816 184.075 56.847 184.286C56.5147 184.497 56.1269 184.602 55.6837 184.602ZM55.6837 183.925C56.0203 183.925 56.2973 183.838 56.5147 183.666C56.732 183.493 56.8928 183.266 56.9973 182.985C57.1017 182.704 57.1539 182.399 57.1539 182.071C57.1539 181.743 57.1017 181.437 56.9973 181.154C56.8928 180.87 56.732 180.641 56.5147 180.467C56.2973 180.292 56.0203 180.205 55.6837 180.205C55.347 180.205 55.07 180.292 54.8527 180.467C54.6354 180.641 54.4745 180.87 54.3701 181.154C54.2657 181.437 54.2135 181.743 54.2135 182.071C54.2135 182.399 54.2657 182.704 54.3701 182.985C54.4745 183.266 54.6354 183.493 54.8527 183.666C55.07 183.838 55.347 183.925 55.6837 183.925ZM61.1944 179.591V180.23H58.6504V179.591H61.1944ZM59.3919 178.415H60.1461V183.094C60.1461 183.307 60.177 183.467 60.2388 183.573C60.3027 183.678 60.3837 183.748 60.4817 183.784C60.5819 183.818 60.6873 183.835 60.7981 183.835C60.8812 183.835 60.9494 183.831 61.0027 183.822C61.0559 183.812 61.0985 183.803 61.1305 183.797L61.2839 184.474C61.2328 184.494 61.1614 184.513 61.0698 184.532C60.9782 184.553 60.862 184.564 60.7214 184.564C60.5083 184.564 60.2995 184.518 60.095 184.427C59.8926 184.335 59.7243 184.195 59.59 184.008C59.4579 183.82 59.3919 183.584 59.3919 183.298V178.415ZM62.329 184.5V179.591H63.0833V184.5H62.329ZM62.7125 178.773C62.5655 178.773 62.4387 178.723 62.3322 178.623C62.2278 178.522 62.1756 178.402 62.1756 178.261C62.1756 178.121 62.2278 178 62.3322 177.9C62.4387 177.8 62.5655 177.75 62.7125 177.75C62.8596 177.75 62.9853 177.8 63.0897 177.9C63.1962 178 63.2495 178.121 63.2495 178.261C63.2495 178.402 63.1962 178.522 63.0897 178.623C62.9853 178.723 62.8596 178.773 62.7125 178.773ZM65.9094 184.615C65.5983 184.615 65.316 184.556 65.0624 184.439C64.8089 184.32 64.6075 184.148 64.4584 183.925C64.3092 183.699 64.2346 183.426 64.2346 183.107C64.2346 182.825 64.29 182.597 64.4008 182.423C64.5116 182.246 64.6597 182.107 64.8451 182.007C65.0305 181.907 65.235 181.832 65.4587 181.783C65.6846 181.732 65.9115 181.692 66.1395 181.662C66.4378 181.624 66.6796 181.595 66.865 181.576C67.0525 181.554 67.1888 181.519 67.2741 181.47C67.3614 181.421 67.4051 181.336 67.4051 181.215V181.189C67.4051 180.874 67.3188 180.629 67.1462 180.454C66.9758 180.279 66.7169 180.192 66.3696 180.192C66.0095 180.192 65.7272 180.271 65.5226 180.428C65.3181 180.586 65.1743 180.754 65.0912 180.933L64.3753 180.678C64.5031 180.379 64.6736 180.147 64.8866 179.981C65.1018 179.813 65.3362 179.695 65.5898 179.629C65.8454 179.561 66.0969 179.527 66.344 179.527C66.5017 179.527 66.6828 179.546 66.8873 179.585C67.094 179.621 67.2932 179.696 67.485 179.811C67.6789 179.927 67.8398 180.1 67.9676 180.332C68.0954 180.565 68.1594 180.876 68.1594 181.266V184.5H67.4051V183.835H67.3667C67.3156 183.942 67.2304 184.056 67.1111 184.177C66.9917 184.299 66.833 184.402 66.6349 184.487C66.4367 184.572 66.1949 184.615 65.9094 184.615ZM66.0244 183.938C66.3227 183.938 66.5741 183.879 66.7787 183.762C66.9854 183.645 67.1409 183.493 67.2453 183.308C67.3518 183.123 67.4051 182.928 67.4051 182.723V182.033C67.3731 182.071 67.3028 182.106 67.1942 182.138C67.0876 182.168 66.964 182.195 66.8234 182.218C66.6849 182.239 66.5496 182.259 66.4175 182.276C66.2876 182.291 66.1821 182.303 66.1011 182.314C65.9051 182.34 65.7219 182.381 65.5514 182.439C65.3831 182.494 65.2467 182.578 65.1423 182.691C65.04 182.802 64.9889 182.953 64.9889 183.145C64.9889 183.407 65.0859 183.605 65.2797 183.739C65.4758 183.871 65.724 183.938 66.0244 183.938ZM71.671 179.591V180.23H69.127V179.591H71.671ZM69.8684 178.415H70.6227V183.094C70.6227 183.307 70.6536 183.467 70.7154 183.573C70.7793 183.678 70.8603 183.748 70.9583 183.784C71.0584 183.818 71.1639 183.835 71.2747 183.835C71.3578 183.835 71.426 183.831 71.4792 183.822C71.5325 183.812 71.5751 183.803 71.6071 183.797L71.7605 184.474C71.7093 184.494 71.638 184.513 71.5463 184.532C71.4547 184.553 71.3386 184.564 71.198 184.564C70.9849 184.564 70.7761 184.518 70.5716 184.427C70.3691 184.335 70.2008 184.195 70.0666 184.008C69.9345 183.82 69.8684 183.584 69.8684 183.298V178.415ZM72.8056 184.5V179.591H73.5598V184.5H72.8056ZM73.1891 178.773C73.0421 178.773 72.9153 178.723 72.8088 178.623C72.7044 178.522 72.6522 178.402 72.6522 178.261C72.6522 178.121 72.7044 178 72.8088 177.9C72.9153 177.8 73.0421 177.75 73.1891 177.75C73.3361 177.75 73.4618 177.8 73.5662 177.9C73.6728 178 73.726 178.121 73.726 178.261C73.726 178.402 73.6728 178.522 73.5662 178.623C73.4618 178.723 73.3361 178.773 73.1891 178.773ZM75.6956 181.547V184.5H74.9413V179.591H75.67V180.358H75.7339C75.849 180.109 76.0237 179.908 76.2581 179.757C76.4925 179.604 76.795 179.527 77.1658 179.527C77.4981 179.527 77.789 179.595 78.0383 179.732C78.2876 179.866 78.4814 180.07 78.6199 180.345C78.7584 180.618 78.8277 180.963 78.8277 181.381V184.5H78.0734V181.432C78.0734 181.046 77.9733 180.746 77.773 180.531C77.5727 180.313 77.2979 180.205 76.9484 180.205C76.7077 180.205 76.4925 180.257 76.3028 180.361C76.1153 180.466 75.9672 180.618 75.8586 180.818C75.7499 181.018 75.6956 181.261 75.6956 181.547ZM82.1875 186.443C81.8232 186.443 81.5099 186.396 81.2479 186.303C80.9858 186.211 80.7674 186.09 80.5927 185.938C80.4201 185.789 80.2827 185.629 80.1804 185.459L80.7813 185.037C80.8494 185.126 80.9357 185.229 81.0401 185.344C81.1445 185.461 81.2873 185.562 81.4684 185.647C81.6516 185.735 81.8913 185.778 82.1875 185.778C82.5838 185.778 82.9109 185.683 83.1687 185.491C83.4265 185.299 83.5554 184.999 83.5554 184.59V183.592H83.4915C83.4361 183.682 83.3572 183.793 83.255 183.925C83.1548 184.055 83.0099 184.171 82.8203 184.273C82.6328 184.373 82.3793 184.423 82.0597 184.423C81.6634 184.423 81.3075 184.33 80.9922 184.142C80.679 183.955 80.4308 183.682 80.2475 183.324C80.0664 182.966 79.9759 182.531 79.9759 182.02C79.9759 181.517 80.0643 181.079 80.2411 180.706C80.418 180.331 80.6641 180.042 80.9794 179.837C81.2947 179.63 81.6591 179.527 82.0724 179.527C82.392 179.527 82.6456 179.58 82.8331 179.687C83.0227 179.791 83.1676 179.911 83.2678 180.045C83.37 180.177 83.4489 180.286 83.5043 180.371H83.581V179.591H84.3097V184.641C84.3097 185.063 84.2138 185.406 84.022 185.67C83.8324 185.936 83.5767 186.131 83.255 186.255C82.9354 186.38 82.5795 186.443 82.1875 186.443ZM82.1619 183.746C82.4645 183.746 82.7202 183.677 82.929 183.538C83.1378 183.4 83.2965 183.2 83.4052 182.94C83.5139 182.68 83.5682 182.369 83.5682 182.007C83.5682 181.653 83.5149 181.341 83.4084 181.071C83.3019 180.8 83.1442 180.588 82.9354 180.435C82.7266 180.281 82.4688 180.205 82.1619 180.205C81.8423 180.205 81.576 180.286 81.3629 180.447C81.152 180.609 80.9933 180.827 80.8867 181.099C80.7823 181.372 80.7301 181.675 80.7301 182.007C80.7301 182.348 80.7834 182.65 80.8899 182.912C80.9986 183.172 81.1584 183.376 81.3693 183.525C81.5824 183.672 81.8466 183.746 82.1619 183.746Z" fill="#1C1C1C"/>
<path d="M31.75 208.5C31.75 209.743 30.7426 210.75 29.5 210.75C28.2574 210.75 27.25 209.743 27.25 208.5C27.25 207.257 28.2574 206.25 29.5 206.25C30.7426 206.25 31.75 207.257 31.75 208.5Z" fill="#54C89F"/>
<path d="M36.2926 211.5V204.955H40.2429V205.658H37.0852V207.869H40.0384V208.572H37.0852V210.797H40.294V211.5H36.2926ZM42.1317 206.591L43.3079 208.598L44.484 206.591H45.3533L43.7681 209.045L45.3533 211.5H44.484L43.3079 209.595L42.1317 211.5H41.2624L42.8221 209.045L41.2624 206.591H42.1317ZM48.2857 211.602C47.8127 211.602 47.4047 211.498 47.0616 211.289C46.7207 211.078 46.4576 210.784 46.2722 210.407C46.089 210.028 45.9973 209.587 45.9973 209.084C45.9973 208.581 46.089 208.138 46.2722 207.754C46.4576 207.369 46.7154 207.068 47.0456 206.853C47.378 206.636 47.7658 206.527 48.209 206.527C48.4647 206.527 48.7172 206.57 48.9664 206.655C49.2157 206.74 49.4427 206.879 49.6472 207.07C49.8517 207.26 50.0147 207.511 50.1362 207.825C50.2576 208.138 50.3184 208.523 50.3184 208.982V209.301H46.5343V208.649H49.5513C49.5513 208.372 49.4959 208.125 49.3851 207.908C49.2765 207.69 49.1209 207.519 48.9185 207.393C48.7182 207.267 48.4817 207.205 48.209 207.205C47.9086 207.205 47.6486 207.279 47.4292 207.428C47.2118 207.575 47.0446 207.767 46.9274 208.004C46.8102 208.24 46.7516 208.494 46.7516 208.764V209.199C46.7516 209.57 46.8155 209.884 46.9434 210.142C47.0733 210.397 47.2534 210.592 47.4835 210.727C47.7136 210.859 47.981 210.925 48.2857 210.925C48.4838 210.925 48.6628 210.897 48.8226 210.842C48.9846 210.784 49.1241 210.699 49.2413 210.586C49.3585 210.471 49.449 210.328 49.513 210.158L50.2417 210.362C50.165 210.609 50.036 210.827 49.8549 211.014C49.6738 211.2 49.4501 211.344 49.1838 211.449C48.9174 211.551 48.6181 211.602 48.2857 211.602ZM53.4601 211.602C52.9998 211.602 52.6035 211.494 52.2711 211.276C51.9387 211.059 51.6831 210.76 51.5041 210.378C51.3251 209.997 51.2356 209.561 51.2356 209.071C51.2356 208.572 51.3272 208.132 51.5105 207.751C51.6958 207.368 51.9537 207.068 52.2839 206.853C52.6163 206.636 53.0041 206.527 53.4473 206.527C53.7924 206.527 54.1035 206.591 54.3805 206.719C54.6575 206.847 54.8844 207.026 55.0613 207.256C55.2381 207.486 55.3478 207.754 55.3905 208.061H54.6362C54.5787 207.837 54.4508 207.639 54.2527 207.467C54.0566 207.292 53.7924 207.205 53.4601 207.205C53.166 207.205 52.9082 207.281 52.6866 207.435C52.4672 207.586 52.2956 207.8 52.1721 208.077C52.0506 208.352 51.9899 208.675 51.9899 209.045C51.9899 209.425 52.0495 209.755 52.1689 210.036C52.2903 210.318 52.4608 210.536 52.6802 210.691C52.9018 210.847 53.1618 210.925 53.4601 210.925C53.6561 210.925 53.834 210.891 53.9938 210.822C54.1536 210.754 54.2889 210.656 54.3997 210.528C54.5105 210.401 54.5893 210.247 54.6362 210.068H55.3905C55.3478 210.358 55.2424 210.619 55.074 210.851C54.9079 211.081 54.6873 211.265 54.4125 211.401C54.1397 211.535 53.8223 211.602 53.4601 211.602ZM59.5868 209.493V206.591H60.3411V211.5H59.5868V210.669H59.5357C59.4206 210.918 59.2417 211.13 58.9988 211.305C58.7559 211.478 58.449 211.564 58.0783 211.564C57.7715 211.564 57.4988 211.497 57.2601 211.363C57.0215 211.226 56.834 211.022 56.6976 210.749C56.5613 210.474 56.4931 210.128 56.4931 209.71V206.591H57.2473V209.659C57.2473 210.017 57.3475 210.303 57.5478 210.516C57.7502 210.729 58.008 210.835 58.3212 210.835C58.5087 210.835 58.6994 210.787 58.8933 210.691C59.0893 210.596 59.2534 210.449 59.3855 210.25C59.5197 210.052 59.5868 209.8 59.5868 209.493ZM63.8575 206.591V207.23H61.3135V206.591H63.8575ZM62.055 205.415H62.8092V210.094C62.8092 210.307 62.8401 210.467 62.9019 210.573C62.9658 210.678 63.0468 210.748 63.1448 210.784C63.2449 210.818 63.3504 210.835 63.4612 210.835C63.5443 210.835 63.6125 210.831 63.6658 210.822C63.719 210.812 63.7616 210.803 63.7936 210.797L63.947 211.474C63.8959 211.494 63.8245 211.513 63.7329 211.532C63.6412 211.553 63.5251 211.564 63.3845 211.564C63.1714 211.564 62.9626 211.518 62.7581 211.427C62.5557 211.335 62.3873 211.195 62.2531 211.008C62.121 210.82 62.055 210.584 62.055 210.298V205.415ZM66.9976 211.602C66.5246 211.602 66.1166 211.498 65.7735 211.289C65.4326 211.078 65.1695 210.784 64.9841 210.407C64.8009 210.028 64.7093 209.587 64.7093 209.084C64.7093 208.581 64.8009 208.138 64.9841 207.754C65.1695 207.369 65.4273 207.068 65.7575 206.853C66.0899 206.636 66.4777 206.527 66.9209 206.527C67.1766 206.527 67.4291 206.57 67.6784 206.655C67.9276 206.74 68.1546 206.879 68.3591 207.07C68.5637 207.26 68.7267 207.511 68.8481 207.825C68.9696 208.138 69.0303 208.523 69.0303 208.982V209.301H65.2462V208.649H68.2632C68.2632 208.372 68.2078 208.125 68.097 207.908C67.9884 207.69 67.8328 207.519 67.6304 207.393C67.4301 207.267 67.1936 207.205 66.9209 207.205C66.6205 207.205 66.3605 207.279 66.1411 207.428C65.9237 207.575 65.7565 207.767 65.6393 208.004C65.5221 208.24 65.4635 208.494 65.4635 208.764V209.199C65.4635 209.57 65.5274 209.884 65.6553 210.142C65.7852 210.397 65.9653 210.592 66.1954 210.727C66.4255 210.859 66.6929 210.925 66.9976 210.925C67.1958 210.925 67.3747 210.897 67.5345 210.842C67.6965 210.784 67.836 210.699 67.9532 210.586C68.0704 210.471 68.161 210.328 68.2249 210.158L68.9536 210.362C68.8769 210.609 68.748 210.827 68.5669 211.014C68.3857 211.2 68.162 211.344 67.8957 211.449C67.6294 211.551 67.33 211.602 66.9976 211.602ZM72.0313 211.602C71.6223 211.602 71.2611 211.499 70.9479 211.292C70.6347 211.083 70.3897 210.789 70.2128 210.41C70.036 210.029 69.9475 209.578 69.9475 209.058C69.9475 208.543 70.036 208.095 70.2128 207.716C70.3897 207.337 70.6357 207.044 70.9511 206.837C71.2664 206.63 71.6308 206.527 72.0441 206.527C72.3637 206.527 72.6162 206.58 72.8016 206.687C72.9891 206.791 73.1318 206.911 73.2299 207.045C73.33 207.177 73.4078 207.286 73.4632 207.371H73.5271V204.955H74.2813V211.5H73.5526V210.746H73.4632C73.4078 210.835 73.3289 210.948 73.2267 211.085C73.1244 211.219 72.9784 211.339 72.7888 211.446C72.5992 211.55 72.3467 211.602 72.0313 211.602ZM72.1336 210.925C72.4362 210.925 72.6919 210.846 72.9007 210.688C73.1095 210.528 73.2682 210.308 73.3769 210.027C73.4855 209.743 73.5399 209.416 73.5399 209.045C73.5399 208.679 73.4866 208.358 73.3801 208.083C73.2735 207.806 73.1159 207.591 72.9071 207.438C72.6982 207.282 72.4404 207.205 72.1336 207.205C71.814 207.205 71.5477 207.287 71.3346 207.451C71.1237 207.613 70.9649 207.833 70.8584 208.112C70.754 208.389 70.7018 208.7 70.7018 209.045C70.7018 209.395 70.7551 209.712 70.8616 209.998C70.9703 210.281 71.1301 210.507 71.341 210.675C71.5541 210.842 71.8183 210.925 72.1336 210.925Z" fill="#1C1C1C"/>
<path d="M31.75 236.5C31.75 237.743 30.7426 238.75 29.5 238.75C28.2574 238.75 27.25 237.743 27.25 236.5C27.25 235.257 28.2574 234.25 29.5 234.25C30.7426 234.25 31.75 235.257 31.75 236.5Z" fill="#F074A8"/>
<path d="M36.2926 239.5V232.955H40.2429V233.658H37.0852V235.869H40.0384V236.572H37.0852V238.797H40.294V239.5H36.2926ZM42.1317 234.591L43.3079 236.598L44.484 234.591H45.3533L43.7681 237.045L45.3533 239.5H44.484L43.3079 237.595L42.1317 239.5H41.2624L42.8221 237.045L41.2624 234.591H42.1317ZM46.4296 241.341V234.591H47.1583V235.371H47.2478C47.3032 235.286 47.3799 235.177 47.4779 235.045C47.578 234.911 47.7208 234.791 47.9062 234.687C48.0937 234.58 48.3472 234.527 48.6668 234.527C49.0802 234.527 49.4445 234.63 49.7599 234.837C50.0752 235.044 50.3213 235.337 50.4981 235.716C50.675 236.095 50.7634 236.543 50.7634 237.058C50.7634 237.578 50.675 238.029 50.4981 238.41C50.3213 238.789 50.0763 239.083 49.7631 239.292C49.4498 239.499 49.0887 239.602 48.6796 239.602C48.3643 239.602 48.1118 239.55 47.9221 239.446C47.7325 239.339 47.5866 239.219 47.4843 239.085C47.382 238.948 47.3032 238.835 47.2478 238.746H47.1839V241.341H46.4296ZM47.1711 237.045C47.1711 237.416 47.2254 237.743 47.3341 238.027C47.4427 238.308 47.6015 238.528 47.8103 238.688C48.0191 238.846 48.2748 238.925 48.5773 238.925C48.8927 238.925 49.1558 238.842 49.3667 238.675C49.5798 238.507 49.7396 238.281 49.8461 237.998C49.9548 237.712 50.0091 237.395 50.0091 237.045C50.0091 236.7 49.9559 236.389 49.8493 236.112C49.7449 235.833 49.5862 235.613 49.3731 235.451C49.1622 235.287 48.8969 235.205 48.5773 235.205C48.2705 235.205 48.0127 235.282 47.8039 235.438C47.5951 235.591 47.4374 235.806 47.3309 236.083C47.2243 236.358 47.1711 236.679 47.1711 237.045ZM51.914 239.5V234.591H52.6682V239.5H51.914ZM52.2975 233.773C52.1505 233.773 52.0237 233.723 51.9172 233.623C51.8128 233.522 51.7606 233.402 51.7606 233.261C51.7606 233.121 51.8128 233 51.9172 232.9C52.0237 232.8 52.1505 232.75 52.2975 232.75C52.4445 232.75 52.5702 232.8 52.6746 232.9C52.7812 233 52.8344 233.121 52.8344 233.261C52.8344 233.402 52.7812 233.522 52.6746 233.623C52.5702 233.723 52.4445 233.773 52.2975 233.773ZM54.0497 239.5V234.591H54.7784V235.332H54.8295C54.919 235.089 55.081 234.892 55.3153 234.741C55.5497 234.59 55.8139 234.514 56.108 234.514C56.1634 234.514 56.2326 234.515 56.3157 234.517C56.3988 234.52 56.4617 234.523 56.5043 234.527V235.294C56.4787 235.288 56.4201 235.278 56.3285 235.265C56.239 235.25 56.1442 235.243 56.044 235.243C55.8054 235.243 55.5923 235.293 55.4048 235.393C55.2195 235.491 55.0724 235.627 54.9638 235.802C54.8572 235.975 54.804 236.172 54.804 236.393V239.5H54.0497ZM59.3072 239.602C58.8342 239.602 58.4261 239.498 58.0831 239.289C57.7422 239.078 57.4791 238.784 57.2937 238.407C57.1104 238.028 57.0188 237.587 57.0188 237.084C57.0188 236.581 57.1104 236.138 57.2937 235.754C57.4791 235.369 57.7369 235.068 58.0671 234.853C58.3995 234.636 58.7873 234.527 59.2305 234.527C59.4862 234.527 59.7386 234.57 59.9879 234.655C60.2372 234.74 60.4641 234.879 60.6687 235.07C60.8732 235.26 61.0362 235.511 61.1577 235.825C61.2791 236.138 61.3398 236.523 61.3398 236.982V237.301H57.5558V236.649H60.5728C60.5728 236.372 60.5174 236.125 60.4066 235.908C60.2979 235.69 60.1424 235.519 59.94 235.393C59.7397 235.267 59.5032 235.205 59.2305 235.205C58.93 235.205 58.6701 235.279 58.4506 235.428C58.2333 235.575 58.0661 235.767 57.9489 236.004C57.8317 236.24 57.7731 236.494 57.7731 236.764V237.199C57.7731 237.57 57.837 237.884 57.9648 238.142C58.0948 238.397 58.2749 238.592 58.505 238.727C58.7351 238.859 59.0025 238.925 59.3072 238.925C59.5053 238.925 59.6843 238.897 59.8441 238.842C60.006 238.784 60.1456 238.699 60.2628 238.586C60.38 238.471 60.4705 238.328 60.5344 238.158L61.2631 238.362C61.1864 238.609 61.0575 238.827 60.8764 239.014C60.6953 239.2 60.4716 239.344 60.2053 239.449C59.9389 239.551 59.6396 239.602 59.3072 239.602ZM64.3409 239.602C63.9318 239.602 63.5707 239.499 63.2575 239.292C62.9442 239.083 62.6992 238.789 62.5224 238.41C62.3455 238.029 62.2571 237.578 62.2571 237.058C62.2571 236.543 62.3455 236.095 62.5224 235.716C62.6992 235.337 62.9453 235.044 63.2607 234.837C63.576 234.63 63.9403 234.527 64.3537 234.527C64.6733 234.527 64.9258 234.58 65.1112 234.687C65.2987 234.791 65.4414 234.911 65.5394 235.045C65.6396 235.177 65.7173 235.286 65.7727 235.371H65.8367V232.955H66.5909V239.5H65.8622V238.746H65.7727C65.7173 238.835 65.6385 238.948 65.5362 239.085C65.434 239.219 65.288 239.339 65.0984 239.446C64.9087 239.55 64.6563 239.602 64.3409 239.602ZM64.4432 238.925C64.7457 238.925 65.0014 238.846 65.2102 238.688C65.419 238.528 65.5778 238.308 65.6864 238.027C65.7951 237.743 65.8494 237.416 65.8494 237.045C65.8494 236.679 65.7962 236.358 65.6896 236.083C65.5831 235.806 65.4254 235.591 65.2166 235.438C65.0078 235.282 64.75 235.205 64.4432 235.205C64.1236 235.205 63.8572 235.287 63.6442 235.451C63.4332 235.613 63.2745 235.833 63.168 236.112C63.0636 236.389 63.0114 236.7 63.0114 237.045C63.0114 237.395 63.0646 237.712 63.1712 237.998C63.2798 238.281 63.4396 238.507 63.6506 238.675C63.8636 238.842 64.1278 238.925 64.4432 238.925Z" fill="#1C1C1C"/>
</svg>
